<?xml version="1.0" encoding="utf-8" standalone="no"?>
<!DOCTYPE svg PUBLIC "-//W3C//DTD SVG 1.1//EN"
  "http://www.w3.org/Graphics/SVG/1.1/DTD/svg11.dtd">
<svg xmlns:xlink="http://www.w3.org/1999/xlink" width="460.8pt" height="345.6pt" viewBox="0 0 460.8 345.6" xmlns="http://www.w3.org/2000/svg" version="1.1">
 <metadata>
  <rdf:RDF xmlns:dc="http://purl.org/dc/elements/1.1/" xmlns:cc="http://creativecommons.org/ns#" xmlns:rdf="http://www.w3.org/1999/02/22-rdf-syntax-ns#">
   <cc:Work>
    <dc:type rdf:resource="http://purl.org/dc/dcmitype/StillImage"/>
    <dc:date>2023-05-03T21:16:33.723887</dc:date>
    <dc:format>image/svg+xml</dc:format>
    <dc:creator>
     <cc:Agent>
      <dc:title>Matplotlib v3.7.1, https://matplotlib.org/</dc:title>
     </cc:Agent>
    </dc:creator>
   </cc:Work>
  </rdf:RDF>
 </metadata>
 <defs>
  <style type="text/css">*{stroke-linejoin: round; stroke-linecap: butt}</style>
 </defs>
 <g id="figure_1">
  <g id="patch_1">
   <path d="M 0 345.6 
L 460.8 345.6 
L 460.8 0 
L 0 0 
z
" style="fill: #ffffff"/>
  </g>
  <g id="axes_1">
   <g id="line2d_1">
    <path d="M 57.6 174.528 
L 60.27974 144.310947 
L 61.708934 130.514209 
L 62.78083 121.941989 
L 63.674077 116.211952 
L 64.567324 111.919284 
L 65.281921 109.592417 
L 65.817869 108.518583 
L 66.175168 108.128145 
L 66.532466 108.000021 
L 66.889765 108.134714 
L 67.247064 108.531693 
L 67.783012 109.615236 
L 68.318959 111.275526 
L 69.033557 114.360187 
L 69.926803 119.544566 
L 70.82005 126.084171 
L 71.891946 135.491523 
L 73.321141 150.12298 
L 75.643582 176.72324 
L 78.144672 204.838163 
L 79.573867 218.620139 
L 80.645763 227.17799 
L 81.53901 232.894296 
L 82.432256 237.171995 
L 83.146853 239.486241 
L 83.682801 240.550365 
L 84.0401 240.934259 
L 84.397399 241.055815 
L 84.754697 240.914554 
L 85.111996 240.511033 
L 85.647944 239.417785 
L 86.183892 237.747993 
L 86.898489 234.651126 
L 87.791736 229.452504 
L 88.684982 222.900108 
L 89.756878 213.479766 
L 91.186073 198.835725 
L 93.508514 172.228266 
L 96.009605 144.124802 
L 97.438799 130.357622 
L 98.510695 121.81416 
L 99.403942 116.111599 
L 100.297189 111.848881 
L 101.011786 109.54726 
L 101.547734 108.49285 
L 101.905033 108.115501 
L 102.262331 108.000513 
L 102.61963 108.148342 
L 102.976928 108.558403 
L 103.512876 109.661355 
L 104.048824 111.340644 
L 104.763422 114.449709 
L 105.656668 119.662561 
L 106.549915 126.227732 
L 107.621811 135.661042 
L 109.051006 150.31763 
L 111.373447 176.932223 
L 113.874537 205.024158 
L 115.303732 218.776508 
L 116.375628 227.305559 
L 117.268874 232.994361 
L 118.162121 237.242089 
L 118.876718 239.531077 
L 119.412666 240.575771 
L 119.769965 240.946575 
L 120.127264 241.054994 
L 120.484562 240.900598 
L 120.841861 240.483997 
L 121.377809 239.371345 
L 121.913757 237.682563 
L 122.628354 234.561308 
L 123.521601 229.334238 
L 124.414847 222.756308 
L 125.665393 211.592146 
L 127.094587 196.680466 
L 129.774327 165.770933 
L 131.918119 142.097434 
L 133.347314 128.664305 
L 134.41921 120.44269 
L 135.312456 115.046025 
L 136.027054 111.779097 
L 136.741651 109.502745 
L 137.277599 108.467771 
L 137.634897 108.103512 
L 137.992196 108.001664 
L 138.349495 108.162627 
L 138.706793 108.585765 
L 139.242741 109.708115 
L 139.778689 111.406386 
L 140.493287 114.539823 
L 141.386533 119.781099 
L 142.27978 126.37177 
L 143.530325 137.550725 
L 144.95952 152.474149 
L 147.63926 183.3887 
L 149.783052 207.049817 
L 151.212246 220.467377 
L 152.284142 228.674126 
L 153.177389 234.05673 
L 153.891986 237.311563 
L 154.606583 239.575271 
L 155.142531 240.600525 
L 155.49983 240.958236 
L 155.857129 241.053515 
L 156.214427 240.885985 
L 156.571726 240.456309 
L 157.107674 239.324265 
L 157.643622 237.616509 
L 158.358219 234.470897 
L 159.251466 229.21543 
L 160.144712 222.612032 
L 161.395258 211.418313 
L 163.003102 194.498729 
L 168.541231 133.241436 
L 169.791776 122.851265 
L 170.863672 115.912626 
L 171.756918 111.709933 
L 172.471516 109.458873 
L 173.007464 108.443344 
L 173.364762 108.09218 
L 173.722061 108.003471 
L 174.07936 108.177567 
L 174.436658 108.613779 
L 174.972606 109.755515 
L 175.508554 111.472751 
L 176.223152 114.630531 
L 177.116398 119.900177 
L 178.188294 127.987272 
L 179.438839 139.484607 
L 181.046683 156.662144 
L 186.227514 214.238681 
L 187.478059 224.93079 
L 188.549955 232.177758 
L 189.443202 236.664052 
L 190.157799 239.154447 
L 190.693747 240.354275 
L 191.229695 240.96924 
L 191.586993 241.051379 
L 191.944292 240.870718 
L 192.301591 240.42797 
L 192.837539 239.276545 
L 193.373487 237.549832 
L 194.088084 234.379893 
L 194.981331 229.096082 
L 196.053227 220.99396 
L 197.303772 209.482476 
L 198.911616 192.293121 
L 204.092446 134.733483 
L 205.342991 124.05703 
L 206.414887 116.826131 
L 207.308134 112.354666 
L 208.022731 109.876814 
L 208.558679 108.686661 
L 209.094627 108.081504 
L 209.451926 108.005936 
L 209.809225 108.193162 
L 210.166523 108.642444 
L 210.702471 109.803555 
L 211.238419 111.53974 
L 211.953017 114.72183 
L 212.846263 120.019795 
L 213.918159 128.136924 
L 215.168704 139.662527 
L 216.776548 156.863659 
L 221.957379 214.406255 
L 223.207924 225.067026 
L 224.27982 232.281837 
L 225.173067 236.738463 
L 225.887664 239.203765 
L 226.423612 240.384241 
L 226.95956 240.979587 
L 227.316858 241.048585 
L 227.674157 240.854794 
L 228.031456 240.39898 
L 228.567404 239.228185 
L 229.103352 237.482532 
L 229.817949 234.288298 
L 230.711196 228.976195 
L 231.783092 220.844078 
L 233.033637 209.304384 
L 234.641481 192.091518 
L 239.822311 134.566105 
L 241.072856 123.921043 
L 242.144752 116.722337 
L 243.037999 112.280562 
L 243.752596 109.827815 
L 244.288544 108.65702 
L 244.824492 108.071485 
L 245.181791 108.009058 
L 245.53909 108.209413 
L 245.896388 108.671759 
L 246.432336 109.852235 
L 246.968284 111.607351 
L 247.682881 114.813721 
L 248.576128 120.139951 
L 249.648024 128.287034 
L 250.898569 139.840791 
L 252.506413 157.065348 
L 257.687244 214.573436 
L 258.937789 225.202762 
L 260.009685 232.385346 
L 260.902931 236.812259 
L 261.617529 239.252445 
L 262.153477 240.413556 
L 262.510775 240.862838 
L 262.868074 241.050064 
L 263.225373 240.974496 
L 263.582671 240.636431 
L 264.118619 239.640357 
L 264.654567 238.065763 
L 265.369165 235.09129 
L 266.083762 231.160744 
L 266.977009 224.99897 
L 268.048904 215.978329 
L 269.478099 201.727392 
L 271.443242 179.541844 
L 274.658929 143.198619 
L 276.088124 129.581264 
L 277.16002 121.182853 
L 278.053267 115.618513 
L 278.767864 112.207074 
L 279.482461 109.779455 
L 280.018409 108.62803 
L 280.375708 108.185282 
L 280.733007 108.004621 
L 281.090305 108.08676 
L 281.447604 108.431375 
L 281.983552 109.437178 
L 282.5195 111.021309 
L 283.234097 114.008055 
L 283.948694 117.95019 
L 284.841941 124.12521 
L 285.913837 133.159503 
L 287.343032 147.424058 
L 289.308174 169.618419 
L 292.523862 205.949577 
L 293.953057 219.551764 
L 295.024952 227.935555 
L 295.918199 233.485998 
L 296.632796 236.88544 
L 297.347394 239.300485 
L 297.883342 240.442221 
L 298.24064 240.878433 
L 298.597939 241.052529 
L 298.955238 240.96382 
L 299.312536 240.612656 
L 299.848484 239.597127 
L 300.384432 238.003462 
L 301.09903 235.004451 
L 301.813627 231.050737 
L 302.706873 224.862486 
L 303.778769 215.814564 
L 305.207964 201.536425 
L 307.173107 179.333306 
L 310.388794 143.014304 
L 311.817989 129.427319 
L 312.889885 121.058168 
L 313.783132 115.521638 
L 314.497729 112.134201 
L 315.212326 109.731735 
L 315.748274 108.599691 
L 316.105573 108.170015 
L 316.462871 108.002485 
L 316.82017 108.097764 
L 317.177469 108.455475 
L 317.713417 109.480729 
L 318.249365 111.083924 
L 318.963962 114.095193 
L 319.678559 118.060476 
L 320.571806 124.261943 
L 321.643702 133.323472 
L 323.072896 147.615159 
L 325.216688 171.914817 
L 328.075078 204.278388 
L 329.504272 218.148425 
L 330.576168 226.792169 
L 331.469415 232.590648 
L 332.362661 236.958004 
L 333.077259 239.347885 
L 333.613207 240.470235 
L 333.970505 240.893373 
L 334.327804 241.054336 
L 334.685103 240.952488 
L 335.042401 240.588229 
L 335.578349 239.553255 
L 336.114297 237.940534 
L 336.828894 234.917014 
L 337.543492 230.940171 
L 338.436738 224.725504 
L 339.508634 215.650391 
L 340.937829 201.34519 
L 343.081621 177.036706 
L 345.94001 144.684131 
L 347.369205 130.828686 
L 348.441101 122.199204 
L 349.334347 116.414385 
L 350.227594 112.061944 
L 350.942191 109.684655 
L 351.478139 108.572003 
L 351.835438 108.155402 
L 352.192736 108.001006 
L 352.550035 108.109425 
L 352.907334 108.480229 
L 353.443282 109.524923 
L 353.97923 111.147165 
L 354.693827 114.182929 
L 355.408424 118.171321 
L 356.301671 124.399173 
L 357.373567 133.487848 
L 358.802761 147.806526 
L 360.946553 172.123777 
L 363.804942 204.465276 
L 365.234137 218.306096 
L 366.306033 226.921294 
L 367.19928 232.692439 
L 368.092526 237.029952 
L 368.807124 239.394645 
L 369.343072 240.497597 
L 369.70037 240.907658 
L 370.057669 241.055487 
L 370.414967 240.940499 
L 370.772266 240.56315 
L 371.308214 239.50874 
L 371.844162 237.876979 
L 372.558759 234.82898 
L 373.452006 229.687408 
L 374.345253 223.186272 
L 375.417149 213.818033 
L 376.846343 199.224543 
L 379.168784 172.646275 
L 381.669875 144.497391 
L 383.09907 130.671231 
L 384.170965 122.070337 
L 385.064212 116.312881 
L 385.957459 111.990305 
L 386.672056 109.638215 
L 387.208004 108.544967 
L 387.565303 108.141446 
L 387.922601 108.000185 
L 388.2799 108.121741 
L 388.637199 108.505635 
L 389.173147 109.569758 
L 389.709095 111.211033 
L 390.423692 114.27126 
L 391.316938 119.427114 
L 392.210185 125.941089 
L 393.282081 135.322389 
L 394.711276 149.92857 
L 397.033717 176.514235 
L 399.534807 204.651868 
L 400.964002 218.463335 
L 402.035898 227.049902 
L 402.929145 232.793656 
L 403.822391 237.101283 
L 404.536988 239.440764 
L 405.072936 240.524307 
L 405.430235 240.921286 
L 405.787534 241.055979 
L 406.144832 240.927855 
L 406.502131 240.537417 
L 407.038079 239.463583 
L 407.574027 237.812799 
L 408.288624 234.740351 
L 409.181871 229.570228 
L 410.075118 223.04343 
L 411.147014 213.649093 
L 412.576208 199.030255 
L 414.72 174.528 
L 414.72 174.528 
" clip-path="url(#p4fa7f0ff8f)" style="fill: none; stroke: #26876b; stroke-width: 2; stroke-linecap: square"/>
   </g>
  </g>
 </g>
 <defs>
  <clipPath id="p4fa7f0ff8f">
   <rect x="57.6" y="41.472" width="357.12" height="266.112"/>
  </clipPath>
 </defs>
</svg>
