<svg xmlns="http://www.w3.org/2000/svg" width="130" height="122" fill="none"><path fill="#575757" d="M65 45.75c4.31 0 8.44 1.6 11.49 4.47A14.79 14.79 0 0 1 81.25 61c0 4.04-1.71 7.92-4.76 10.78A16.8 16.8 0 0 1 65 76.25a16.8 16.8 0 0 1-11.49-4.47A14.79 14.79 0 0 1 48.75 61c0-4.04 1.71-7.92 4.76-10.78A16.8 16.8 0 0 1 65 45.75Zm0-22.88c26.33 0 49.94 15.25 59.58 38.13-12.94 30.9-50.1 46.06-83.03 33.9C25.03 88.8 11.92 76.57 5.42 61 15.06 38.12 38.67 22.87 65 22.87ZM17.23 61c12.89 24.76 44.8 35.02 71.17 22.88A51.63 51.63 0 0 0 112.78 61c-12.9-24.76-44.8-35.02-71.18-22.88A51.63 51.63 0 0 0 17.22 61Zm31.52 50.83H37.92V122h10.83v-10.17Zm21.67 0H59.58V122h10.84v-10.17Zm21.66 0H81.25V122h10.83v-10.17Z" style="mix-blend-mode:overlay"/></svg>